<svg width="16" height="16" viewBox="0 0 16 16" fill="none" xmlns="http://www.w3.org/2000/svg">
<g clip-path="url(#clip0_290_14589)">
<path d="M6.06022 6.00001C6.21696 5.55446 6.52632 5.17875 6.93352 4.93943C7.34073 4.70012 7.81948 4.61264 8.28501 4.69249C8.75053 4.77234 9.17277 5.01436 9.47694 5.3757C9.78111 5.73703 9.94759 6.19436 9.94689 6.66668C9.94689 8.00001 7.94689 8.66668 7.94689 8.66668M8.00016 11.3333H8.00683M14.6668 8C14.6668 11.6819 11.6821 14.6667 8.00016 14.6667C4.31826 14.6667 1.3335 11.6819 1.3335 8C1.3335 4.3181 4.31826 1.33333 8.00016 1.33333C11.6821 1.33333 14.6668 4.3181 14.6668 8Z" stroke="#191E29" stroke-width="1.5" stroke-linecap="round" stroke-linejoin="round"/>
</g>
<defs>
<clipPath id="clip0_290_14589">
<rect width="16" height="16" fill="white"/>
</clipPath>
</defs>
</svg>
